# xmcd CD database file
#
# Track frame offsets:
#	187
#	21417
#	38275
#
# Disc length: 755 seconds
#
# Revision: 0
# Processed by: cddbd v1.5.1PL2 Copyright (c) Steve Scherf et al.
# Submitted via: CDex 1.51
#
DISCID=1702f103
DTITLE=LINE-UP - しあわせを呼ぶメロディ
DYEAR=1990
DGENRE=Rock
TTITLE0=しあわせを呼ぶメロディ
TTITLE1=ANGELINA
TTITLE2=STAY WITH ME
EXTD=YEAR: 1990
EXTT0=
EXTT1=
EXTT2=
PLAYORDER=
